<svg width="326" height="152" viewBox="0 0 326 152" fill="none" xmlns="http://www.w3.org/2000/svg">
<g filter="url(#filter0_d_338_30)">
<circle cx="319.632" cy="2.36813" r="2.36764" transform="rotate(90 319.632 2.36813)" fill="white" fill-opacity="0.31"/>
<circle cx="319.632" cy="37.0927" r="2.36764" transform="rotate(90 319.632 37.0927)" fill="white" fill-opacity="0.31"/>
<circle cx="319.632" cy="71.8183" r="2.36764" transform="rotate(90 319.632 71.8183)" fill="white" fill-opacity="0.31"/>
<circle cx="319.632" cy="106.543" r="2.36764" transform="rotate(90 319.632 106.543)" fill="white" fill-opacity="0.31"/>
<circle cx="319.632" cy="141.269" r="2.36764" transform="rotate(90 319.632 141.269)" fill="white" fill-opacity="0.31"/>
<circle cx="284.907" cy="2.36764" r="2.36764" transform="rotate(90 284.907 2.36764)" fill="white" fill-opacity="0.31"/>
<circle cx="284.907" cy="37.0927" r="2.36764" transform="rotate(90 284.907 37.0927)" fill="white" fill-opacity="0.31"/>
<circle cx="284.907" cy="71.8183" r="2.36764" transform="rotate(90 284.907 71.8183)" fill="white" fill-opacity="0.31"/>
<circle cx="284.907" cy="106.543" r="2.36764" transform="rotate(90 284.907 106.543)" fill="white" fill-opacity="0.31"/>
<circle cx="284.907" cy="141.269" r="2.36764" transform="rotate(90 284.907 141.269)" fill="white" fill-opacity="0.31"/>
<circle cx="250.181" cy="2.36764" r="2.36764" transform="rotate(90 250.181 2.36764)" fill="white" fill-opacity="0.31"/>
<circle cx="250.181" cy="37.0927" r="2.36764" transform="rotate(90 250.181 37.0927)" fill="white" fill-opacity="0.31"/>
<circle cx="250.181" cy="71.8183" r="2.36764" transform="rotate(90 250.181 71.8183)" fill="white" fill-opacity="0.31"/>
<circle cx="250.181" cy="106.543" r="2.36764" transform="rotate(90 250.181 106.543)" fill="white" fill-opacity="0.31"/>
<circle cx="250.181" cy="141.269" r="2.36764" transform="rotate(90 250.181 141.269)" fill="white" fill-opacity="0.31"/>
<circle cx="215.457" cy="2.36764" r="2.36764" transform="rotate(90 215.457 2.36764)" fill="white" fill-opacity="0.31"/>
<circle cx="215.457" cy="37.0927" r="2.36764" transform="rotate(90 215.457 37.0927)" fill="white" fill-opacity="0.31"/>
<circle cx="215.457" cy="71.8183" r="2.36764" transform="rotate(90 215.457 71.8183)" fill="white" fill-opacity="0.31"/>
<circle cx="215.457" cy="106.543" r="2.36764" transform="rotate(90 215.457 106.543)" fill="white" fill-opacity="0.31"/>
<circle cx="215.456" cy="141.269" r="2.36764" transform="rotate(90 215.456 141.269)" fill="white" fill-opacity="0.31"/>
<circle cx="180.731" cy="2.36764" r="2.36764" transform="rotate(90 180.731 2.36764)" fill="white" fill-opacity="0.31"/>
<circle cx="180.731" cy="37.0927" r="2.36764" transform="rotate(90 180.731 37.0927)" fill="white" fill-opacity="0.31"/>
<circle cx="180.731" cy="71.8183" r="2.36764" transform="rotate(90 180.731 71.8183)" fill="white" fill-opacity="0.31"/>
<circle cx="180.731" cy="106.543" r="2.36764" transform="rotate(90 180.731 106.543)" fill="white" fill-opacity="0.31"/>
<circle cx="180.731" cy="141.269" r="2.36764" transform="rotate(90 180.731 141.269)" fill="white" fill-opacity="0.31"/>
<circle cx="146.005" cy="2.36764" r="2.36764" transform="rotate(90 146.005 2.36764)" fill="white" fill-opacity="0.31"/>
<circle cx="146.005" cy="37.0927" r="2.36764" transform="rotate(90 146.005 37.0927)" fill="white" fill-opacity="0.31"/>
<circle cx="146.005" cy="71.8183" r="2.36764" transform="rotate(90 146.005 71.8183)" fill="white" fill-opacity="0.31"/>
<circle cx="146.005" cy="106.543" r="2.36764" transform="rotate(90 146.005 106.543)" fill="white" fill-opacity="0.31"/>
<circle cx="146.005" cy="141.269" r="2.36764" transform="rotate(90 146.005 141.269)" fill="white" fill-opacity="0.31"/>
<circle cx="111.28" cy="2.36764" r="2.36764" transform="rotate(90 111.28 2.36764)" fill="white" fill-opacity="0.31"/>
<circle cx="111.28" cy="37.0927" r="2.36764" transform="rotate(90 111.28 37.0927)" fill="white" fill-opacity="0.31"/>
<circle cx="111.28" cy="71.8183" r="2.36764" transform="rotate(90 111.28 71.8183)" fill="white" fill-opacity="0.31"/>
<circle cx="111.28" cy="106.543" r="2.36764" transform="rotate(90 111.28 106.543)" fill="white" fill-opacity="0.31"/>
<circle cx="111.28" cy="141.269" r="2.36764" transform="rotate(90 111.28 141.269)" fill="white" fill-opacity="0.31"/>
<circle cx="76.5552" cy="2.36764" r="2.36764" transform="rotate(90 76.5552 2.36764)" fill="white" fill-opacity="0.31"/>
<circle cx="76.5542" cy="37.0927" r="2.36764" transform="rotate(90 76.5542 37.0927)" fill="white" fill-opacity="0.31"/>
<circle cx="76.5542" cy="71.8183" r="2.36764" transform="rotate(90 76.5542 71.8183)" fill="white" fill-opacity="0.31"/>
<circle cx="76.5552" cy="106.543" r="2.36764" transform="rotate(90 76.5552 106.543)" fill="white" fill-opacity="0.31"/>
<circle cx="76.5552" cy="141.269" r="2.36764" transform="rotate(90 76.5552 141.269)" fill="white" fill-opacity="0.31"/>
<circle cx="41.8296" cy="2.36764" r="2.36764" transform="rotate(90 41.8296 2.36764)" fill="white" fill-opacity="0.31"/>
<circle cx="41.8296" cy="37.0927" r="2.36764" transform="rotate(90 41.8296 37.0927)" fill="white" fill-opacity="0.31"/>
<circle cx="41.8296" cy="71.8183" r="2.36764" transform="rotate(90 41.8296 71.8183)" fill="white" fill-opacity="0.31"/>
<circle cx="41.8296" cy="106.543" r="2.36764" transform="rotate(90 41.8296 106.543)" fill="white" fill-opacity="0.31"/>
<circle cx="41.8296" cy="141.269" r="2.36764" transform="rotate(90 41.8296 141.269)" fill="white" fill-opacity="0.31"/>
<circle cx="7.10502" cy="2.36764" r="2.36764" transform="rotate(90 7.10502 2.36764)" fill="white" fill-opacity="0.31"/>
<circle cx="7.10502" cy="37.0927" r="2.36764" transform="rotate(90 7.10502 37.0927)" fill="white" fill-opacity="0.31"/>
<circle cx="7.10502" cy="71.8183" r="2.36764" transform="rotate(90 7.10502 71.8183)" fill="white" fill-opacity="0.31"/>
<circle cx="7.10502" cy="106.543" r="2.36764" transform="rotate(90 7.10502 106.543)" fill="white" fill-opacity="0.31"/>
<circle cx="7.10502" cy="141.269" r="2.36764" transform="rotate(90 7.10502 141.269)" fill="white" fill-opacity="0.31"/>
</g>
<defs>
<filter id="filter0_d_338_30" x="0.737305" y="0" width="325.263" height="151.637" filterUnits="userSpaceOnUse" color-interpolation-filters="sRGB">
<feFlood flood-opacity="0" result="BackgroundImageFix"/>
<feColorMatrix in="SourceAlpha" type="matrix" values="0 0 0 0 0 0 0 0 0 0 0 0 0 0 0 0 0 0 127 0" result="hardAlpha"/>
<feOffset dy="4"/>
<feGaussianBlur stdDeviation="2"/>
<feComposite in2="hardAlpha" operator="out"/>
<feColorMatrix type="matrix" values="0 0 0 0 0 0 0 0 0 0 0 0 0 0 0 0 0 0 0.25 0"/>
<feBlend mode="normal" in2="BackgroundImageFix" result="effect1_dropShadow_338_30"/>
<feBlend mode="normal" in="SourceGraphic" in2="effect1_dropShadow_338_30" result="shape"/>
</filter>
</defs>
</svg>
