<svg width="24" height="24" viewBox="0 0 24 24" fill="none" xmlns="http://www.w3.org/2000/svg">
<path d="M12 1C5.9379 1 1 5.9379 1 12C1 18.0621 5.9379 23 12 23C18.0621 23 23 18.0621 23 12C23 5.9379 18.0621 1 12 1ZM12 3.2C16.8731 3.2 20.8 7.12687 20.8 12C20.8 16.4159 17.5719 20.0443 13.3406 20.6883V14.6232H15.9016L16.3033 12.0215H13.3406V10.5992C13.3406 9.51792 13.6929 8.5582 14.7049 8.5582H16.3291V6.2873C16.0431 6.2488 15.4395 6.16484 14.2988 6.16484C11.9162 6.16484 10.5197 7.42324 10.5197 10.2898V12.0215H8.07051V14.6232H10.5197V20.6668C6.35732 19.9649 3.2 16.3673 3.2 12C3.2 7.12687 7.12687 3.2 12 3.2Z" fill="white"/>
</svg>
