<svg width="31" height="31" viewBox="0 0 31 31" fill="none" xmlns="http://www.w3.org/2000/svg">
<path d="M23.2613 13.6539H29.7776C30.1761 13.6539 30.5 13.9777 30.5 14.3763V30.1182C30.5 30.5176 30.1761 30.8406 29.7776 30.8406H23.2613C22.8619 30.8406 22.5389 30.5167 22.5389 30.1182V14.3763C22.5389 13.9778 22.8628 13.6539 23.2613 13.6539ZM22.2556 3.39893C21.8892 3.55659 21.4643 3.38663 21.3066 3.02124C21.1489 2.65476 21.3189 2.22988 21.6854 2.0722L26.3535 0.058876C26.7199 -0.0987844 27.1448 0.0711726 27.3016 0.437656L29.3925 4.74694C29.5653 5.10573 29.4151 5.53741 29.0563 5.71026C28.6975 5.88307 28.2666 5.73288 28.093 5.37408L26.8238 2.75821C22.4578 18.3179 3.0828 15.925 3.02547 15.9182C2.62978 15.873 2.3454 15.5151 2.38998 15.1192C2.43521 14.7235 2.79313 14.4391 3.18905 14.4846C3.24372 14.4903 21.6972 16.7671 25.5359 1.9845L22.2556 3.39893ZM1.22245 20.7013H7.73865C8.13807 20.7013 8.4611 21.0251 8.4611 21.4237V30.1176C8.4611 30.517 8.13722 30.8401 7.73865 30.8401H1.22245C0.82391 30.8401 0.5 30.5162 0.5 30.1176V21.4237C0.5 21.0243 0.823882 20.7013 1.22245 20.7013ZM7.01632 22.1472H1.94597V29.3965H7.01632V22.1472ZM12.2417 16.7481H18.7579C19.1573 16.7481 19.4804 17.072 19.4804 17.4706V30.1185C19.4804 30.5179 19.1565 30.841 18.7579 30.841H12.2417C11.8423 30.841 11.5193 30.5171 11.5193 30.1185V17.4706C11.5193 17.0721 11.8431 16.7481 12.2417 16.7481ZM18.0356 18.1941H12.9652V29.3968H18.0356V18.1941ZM29.0544 15.1002H23.9841V29.3952H29.0544V15.1002Z" fill="#27272A"/>
</svg>
