<svg width="24" height="24" viewBox="0 0 24 24" fill="none" xmlns="http://www.w3.org/2000/svg">
<path fill-rule="evenodd" clip-rule="evenodd" d="M5.5 3.66667C5.03977 3.66667 4.66667 4.03977 4.66667 4.5C4.66667 4.96023 5.03977 5.33333 5.5 5.33333C5.96023 5.33333 6.33333 4.96023 6.33333 4.5C6.33333 4.03977 5.96023 3.66667 5.5 3.66667ZM3 4.5C3 3.11929 4.11929 2 5.5 2C6.88071 2 8 3.11929 8 4.5C8 5.88071 6.88071 7 5.5 7C4.11929 7 3 5.88071 3 4.5Z" fill="white"/>
<path fill-rule="evenodd" clip-rule="evenodd" d="M3 8.86667C3 8.38802 3.3731 8 3.83333 8H7.16667C7.6269 8 8 8.38802 8 8.86667V20.1333C8 20.612 7.6269 21 7.16667 21H3.83333C3.3731 21 3 20.612 3 20.1333V8.86667ZM4.66667 9.73333V19.2667H6.33333V9.73333H4.66667Z" fill="white"/>
<path fill-rule="evenodd" clip-rule="evenodd" d="M9 8.86667C9 8.38802 9.38802 8 9.86667 8H13.3333C13.8098 8 14.197 8.38472 14.2 8.86124L14.202 9.18396L14.5331 8.90728C15.2346 8.32112 16.1197 8 17.0338 8H17.2333C19.8659 8 22 10.1341 22 12.7667V20.1333C22 20.612 21.612 21 21.1333 21H17.6667C17.188 21 16.8 20.612 16.8 20.1333V14.9333C16.8 14.2154 16.2179 13.6333 15.5 13.6333C14.7821 13.6333 14.2 14.2154 14.2 14.9333V20.1333C14.2 20.612 13.812 21 13.3333 21H9.86667C9.38802 21 9 20.612 9 20.1333V8.86667ZM10.7333 9.73333V19.2667H12.4667V14.9333C12.4667 13.2581 13.8247 11.9 15.5 11.9C17.1753 11.9 18.5333 13.2581 18.5333 14.9333V19.2667H20.2667V12.7667C20.2667 11.0914 18.9086 9.73333 17.2333 9.73333H17.0338C16.526 9.73333 16.0343 9.91169 15.6446 10.2374L13.9026 11.693C13.6452 11.9081 13.2866 11.9553 12.9822 11.8141C12.6779 11.673 12.4824 11.3688 12.4802 11.0333L12.472 9.73333H10.7333Z" fill="white"/>
</svg>
