<svg width="40" height="40" viewBox="0 0 40 40" fill="none" xmlns="http://www.w3.org/2000/svg">
<path d="M6.72168 3.9079L13.2362 0.0419922L19.7507 3.9079V11.5981L13.1947 15.4225L6.72168 11.5981V3.9079Z" fill="#009DE0"/>
<path d="M0 16.0036L6.51452 12.1377L13.029 16.0036V23.6938L6.47303 27.5182L0 23.6938V16.0036Z" fill="#49AD33"/>
<path d="M13.5273 16.0036L20.0419 12.1377L26.5564 16.0036V23.6938L20.0004 27.5182L13.5273 23.6938V16.0036Z" fill="#FFEC01"/>
<path d="M26.9707 16.0036L33.4852 12.1377L39.9997 16.0036V23.6938L33.4437 27.5182L26.9707 23.6938V16.0036Z" fill="#009DE0"/>
<path d="M20.249 27.9763L26.7635 24.1104L33.2781 27.9763V35.6665L26.7221 39.4908L20.249 35.6665V27.9763Z" fill="#E40079"/>
<path d="M6.72168 27.9763L13.2362 24.1104L19.7507 27.9763V35.6665L13.1947 39.4908L6.72168 35.6665V27.9763Z" fill="#FFEC01"/>
<path d="M20.249 3.86591L26.7635 0L33.2781 3.86591V11.5562L26.7221 15.3805L20.249 11.5562V3.86591Z" fill="#EBAA32"/>
</svg>
