<svg width="22" height="17" viewBox="0 0 22 17" fill="none" xmlns="http://www.w3.org/2000/svg">
<path d="M2.125 0H19.125C19.6886 0 20.2291 0.223883 20.6276 0.622398C21.0261 1.02091 21.25 1.56141 21.25 2.125V14.875C21.25 15.4386 21.0261 15.9791 20.6276 16.3776C20.2291 16.7761 19.6886 17 19.125 17H2.125C1.56141 17 1.02091 16.7761 0.622398 16.3776C0.223883 15.9791 0 15.4386 0 14.875V2.125C0 0.95625 0.95625 0 2.125 0ZM19.125 3.59125V2.125H2.125V3.59125L10.625 7.84125L19.125 3.59125V3.59125ZM19.125 5.97125L11.1031 9.97688C10.9548 10.0516 10.7911 10.0905 10.625 10.0905C10.4589 10.0905 10.2952 10.0516 10.1469 9.97688L2.125 5.97125V14.875H19.125V5.97125V5.97125Z" fill="white"/>
</svg>
