<svg width="35" height="38" viewBox="0 0 35 38" fill="none" xmlns="http://www.w3.org/2000/svg">
<path d="M18.3177 19.6562V10.2536C18.3177 9.76551 17.9233 9.37109 17.4352 9.37109C16.948 9.37109 16.5527 9.7655 16.5527 10.2536V20.0155C16.5527 20.0551 16.5705 20.0879 16.5749 20.1257C16.5846 20.1999 16.5908 20.2758 16.6189 20.3446C16.6473 20.4152 16.6931 20.4734 16.7371 20.5307C16.761 20.5635 16.7722 20.5996 16.8006 20.6279L20.5781 24.528C20.7518 24.7053 20.9814 24.7963 21.2124 24.7963C21.4349 24.7963 21.6553 24.7124 21.8257 24.5484C22.1752 24.2087 22.1859 23.6503 21.8461 23.3008L18.3177 19.6562Z" fill="#27272A"/>
<path d="M28.0124 5.8205C24.6186 3.09923 20.384 1.8137 16.051 2.16827C15.5021 1.00716 14.3268 0.195312 12.9592 0.195312C11.0693 0.195312 9.53125 1.73247 9.53125 3.62329C9.53125 5.51238 11.0693 7.05128 12.9592 7.05128C14.747 7.05128 16.2037 5.66946 16.3565 3.91962C20.1763 3.64871 23.9124 4.795 26.9103 7.19755C33.4268 12.423 34.4759 21.9739 29.2505 28.4897C28.9471 28.8717 29.0079 29.4269 29.3881 29.7302C29.5506 29.859 29.7447 29.9235 29.9397 29.9235C30.1982 29.9235 30.4532 29.8115 30.629 29.5943C36.4616 22.3188 35.289 11.6542 28.0129 5.82066L28.0124 5.8205Z" fill="#27272A"/>
<path d="M21.9098 30.979C20.1212 30.979 18.6644 32.3608 18.5108 34.1106C14.6901 34.3807 10.9567 33.237 7.9585 30.8327C1.44197 25.6072 0.392189 16.0548 5.61743 9.5398C5.92173 9.15868 5.86088 8.60354 5.48064 8.29927C5.10041 7.99497 4.54529 8.05494 4.24011 8.43518C-1.59337 15.7095 -0.420758 26.376 6.85444 32.2096C9.88096 34.6361 13.5763 35.9289 17.409 35.9289C17.8758 35.9289 18.3479 35.8997 18.8164 35.8601C19.3663 37.0229 20.5416 37.8348 21.91 37.8348C23.8008 37.8348 25.338 36.2976 25.338 34.4068C25.3386 32.518 23.7996 30.9791 21.9103 30.9791L21.9098 30.979Z" fill="#27272A"/>
</svg>
