<svg width="20" height="25" viewBox="0 0 20 25" fill="none" xmlns="http://www.w3.org/2000/svg">
<path d="M9.99998 15.0001C12.7574 15.0001 14.9999 12.7576 14.9999 10.0001C14.9999 7.24257 12.7574 5.00006 9.99998 5.00006C7.24251 5.00006 5.00003 7.24257 5.00003 10.0001C5.00003 12.7576 7.24251 15.0001 9.99998 15.0001ZM9.99998 7.50007C11.3787 7.50007 12.5 8.62133 12.5 10.0001C12.5 11.3789 11.3787 12.5001 9.99998 12.5001C8.62124 12.5001 7.50001 11.3789 7.50001 10.0001C7.50001 8.62133 8.62124 7.50007 9.99998 7.50007ZM9.27501 24.7677C9.48656 24.9188 9.74003 25 10 25C10.26 25 10.5134 24.9188 10.725 24.7677C11.105 24.4989 20.0361 18.0501 19.9999 10.0001C19.9999 4.48629 15.5137 0 10 0C4.48631 0 0.000110046 4.48629 0.000110046 9.99383C-0.0361396 18.0501 8.89501 24.4989 9.27501 24.7677ZM10 2.50002C14.1362 2.50002 17.4999 5.8638 17.4999 10.0063C17.5262 15.5539 12.015 20.5352 10 22.1689C7.98627 20.5339 2.47383 15.5514 2.50008 10.0001C2.50008 5.8638 5.8638 2.50002 10 2.50002ZM9.99998 15.0001C12.7574 15.0001 14.9999 12.7576 14.9999 10.0001C14.9999 7.24257 12.7574 5.00006 9.99998 5.00006C7.24251 5.00006 5.00003 7.24257 5.00003 10.0001C5.00003 12.7576 7.24251 15.0001 9.99998 15.0001ZM9.99998 7.50007C11.3787 7.50007 12.5 8.62133 12.5 10.0001C12.5 11.3789 11.3787 12.5001 9.99998 12.5001C8.62124 12.5001 7.50001 11.3789 7.50001 10.0001C7.50001 8.62133 8.62124 7.50007 9.99998 7.50007ZM9.27501 24.7677C9.48656 24.9188 9.74003 25 10 25C10.26 25 10.5134 24.9188 10.725 24.7677C11.105 24.4989 20.0361 18.0501 19.9999 10.0001C19.9999 4.48629 15.5137 0 10 0C4.48631 0 0.000110046 4.48629 0.000110046 9.99383C-0.0361396 18.0501 8.89501 24.4989 9.27501 24.7677ZM10 2.50002C14.1362 2.50002 17.4999 5.8638 17.4999 10.0063C17.5262 15.5539 12.015 20.5352 10 22.1689C7.98627 20.5339 2.47383 15.5514 2.50008 10.0001C2.50008 5.8638 5.8638 2.50002 10 2.50002Z" fill="white"/>
<path d="M9.99998 15.0001C12.7574 15.0001 14.9999 12.7576 14.9999 10.0001C14.9999 7.24257 12.7574 5.00006 9.99998 5.00006C7.24251 5.00006 5.00003 7.24257 5.00003 10.0001C5.00003 12.7576 7.24251 15.0001 9.99998 15.0001ZM9.99998 7.50007C11.3787 7.50007 12.5 8.62133 12.5 10.0001C12.5 11.3789 11.3787 12.5001 9.99998 12.5001C8.62124 12.5001 7.50001 11.3789 7.50001 10.0001C7.50001 8.62133 8.62124 7.50007 9.99998 7.50007ZM9.27501 24.7677C9.48656 24.9188 9.74003 25 10 25C10.26 25 10.5134 24.9188 10.725 24.7677C11.105 24.4989 20.0361 18.0501 19.9999 10.0001C19.9999 4.48629 15.5137 0 10 0C4.48631 0 0.000110046 4.48629 0.000110046 9.99383C-0.0361396 18.0501 8.89501 24.4989 9.27501 24.7677ZM10 2.50002C14.1362 2.50002 17.4999 5.8638 17.4999 10.0063C17.5262 15.5539 12.015 20.5352 10 22.1689C7.98627 20.5339 2.47383 15.5514 2.50008 10.0001C2.50008 5.8638 5.8638 2.50002 10 2.50002ZM9.99998 15.0001C12.7574 15.0001 14.9999 12.7576 14.9999 10.0001C14.9999 7.24257 12.7574 5.00006 9.99998 5.00006C7.24251 5.00006 5.00003 7.24257 5.00003 10.0001C5.00003 12.7576 7.24251 15.0001 9.99998 15.0001ZM9.99998 7.50007C11.3787 7.50007 12.5 8.62133 12.5 10.0001C12.5 11.3789 11.3787 12.5001 9.99998 12.5001C8.62124 12.5001 7.50001 11.3789 7.50001 10.0001C7.50001 8.62133 8.62124 7.50007 9.99998 7.50007ZM9.27501 24.7677C9.48656 24.9188 9.74003 25 10 25C10.26 25 10.5134 24.9188 10.725 24.7677C11.105 24.4989 20.0361 18.0501 19.9999 10.0001C19.9999 4.48629 15.5137 0 10 0C4.48631 0 0.000110046 4.48629 0.000110046 9.99383C-0.0361396 18.0501 8.89501 24.4989 9.27501 24.7677ZM10 2.50002C14.1362 2.50002 17.4999 5.8638 17.4999 10.0063C17.5262 15.5539 12.015 20.5352 10 22.1689C7.98627 20.5339 2.47383 15.5514 2.50008 10.0001C2.50008 5.8638 5.8638 2.50002 10 2.50002Z" fill="white"/>
</svg>
