<svg width="30" height="30" viewBox="0 0 30 30" fill="none" xmlns="http://www.w3.org/2000/svg">
<path d="M5 7.25C5 6.55965 5.55965 6 6.25 6H23.75C24.4404 6 25 6.55965 25 7.25C25 7.94035 24.4404 8.5 23.75 8.5H6.25C5.55965 8.5 5 7.94035 5 7.25Z" fill="black"/>
<path d="M5 22.5C5 21.8096 5.55965 21.25 6.25 21.25H23.75C24.4404 21.25 25 21.8096 25 22.5C25 23.1904 24.4404 23.75 23.75 23.75H6.25C5.55965 23.75 5 23.1904 5 22.5Z" fill="black"/>
<path d="M13.75 13.75C13.0596 13.75 12.5 14.3096 12.5 15C12.5 15.6904 13.0596 16.25 13.75 16.25H23.75C24.4404 16.25 25 15.6904 25 15C25 14.3096 24.4404 13.75 23.75 13.75H13.75Z" fill="black"/>
</svg>
