<svg width="12" height="12" viewBox="0 0 12 12" fill="none" xmlns="http://www.w3.org/2000/svg">
<path d="M7.14949 6.08816C7.12598 6.06471 7.11277 6.03287 7.11277 5.99967C7.11277 5.96646 7.12598 5.93463 7.14949 5.91118L11.7806 1.28056C12.0734 0.987322 12.0731 0.512224 11.7799 0.219399C11.4866 -0.0734256 11.0115 -0.0730899 10.7187 0.220149L6.08807 4.84876C6.06462 4.87227 6.03279 4.88548 5.99958 4.88548C5.96638 4.88548 5.93454 4.87227 5.91109 4.84876L1.28047 0.220149C0.987649 -0.0728138 0.512775 -0.0729257 0.219812 0.219899C-0.0731504 0.512724 -0.0732623 0.987598 0.219562 1.28056L4.84968 5.91118C4.87319 5.93463 4.8864 5.96646 4.8864 5.99967C4.8864 6.03287 4.87319 6.06471 4.84968 6.08816L0.219562 10.7193C0.030138 10.9088 -0.0437929 11.185 0.0256185 11.4438C0.09503 11.7026 0.297239 11.9047 0.556074 11.974C0.81491 12.0433 1.09105 11.9692 1.28047 11.7797L5.91109 7.14857C5.93454 7.12506 5.96638 7.11185 5.99958 7.11185C6.03279 7.11185 6.06462 7.12506 6.08807 7.14857L10.7187 11.7797C11.0115 12.0727 11.4864 12.0728 11.7794 11.7799C12.0723 11.4871 12.0724 11.0122 11.7796 10.7193L7.14949 6.08816Z" fill="#F496D1"/>
</svg>
