<svg width="41" height="43" viewBox="0 0 41 43" fill="none" xmlns="http://www.w3.org/2000/svg">
<path d="M33.5835 0.548828C37.2623 0.548828 40.3228 3.43751 40.3228 7.27522C40.3228 8.21209 40.1137 9.42881 39.7973 10.2836C37.9936 14.1605 36.1719 18.045 34.3586 21.9231C34.2243 22.2111 33.9146 22.4093 33.5968 22.4093H24.3482C22.2374 22.4093 20.5648 24.0822 20.5648 26.1927C20.5648 28.3034 22.2377 29.976 24.3482 29.976H26.4501C29.9292 29.976 32.756 32.8028 32.756 36.2819C32.756 39.7609 29.9292 42.5877 26.4501 42.5877H8.37336C8.05549 42.5877 7.74582 42.3898 7.61155 42.1015C5.565 37.7349 3.42612 33.3995 1.39781 29.0304C1.05237 28.1114 0.806641 26.8094 0.806641 25.7725C0.806641 21.5029 4.23432 18.2055 8.38717 18.2055C12.54 18.2055 15.9407 21.5053 15.9407 25.7725C15.9407 26.8103 15.6923 28.1138 15.3495 29.0304C13.4763 32.9871 11.5843 36.948 9.70052 40.9064H26.4501C29.0264 40.9064 31.0745 38.8587 31.0745 36.282C31.0745 33.7056 29.0268 31.6575 26.4501 31.6575H24.3481C21.335 31.6575 18.883 29.2055 18.883 26.1924C18.883 23.1793 21.335 20.7272 24.3481 20.7272H32.2694C30.6493 17.2439 28.9875 13.7724 27.3955 10.2836C27.0817 9.43114 26.87 8.21299 26.87 7.27522C26.87 3.44021 29.9045 0.548828 33.5835 0.548828ZM33.5835 2.23024C30.7611 2.23024 28.5522 4.30554 28.5522 7.27484C28.5522 7.89651 28.7812 9.1651 28.9727 9.69201C30.5045 12.9866 32.054 16.2794 33.5971 19.5712C35.1035 16.2632 36.6629 13.0641 38.2215 9.69201C38.4133 9.16681 38.6421 7.89799 38.6421 7.27484C38.6421 4.30787 36.406 2.23024 33.5835 2.23024ZM33.5964 4.33219C35.2116 4.33219 36.5391 5.65972 36.5391 7.27484C36.5391 8.88997 35.2116 10.2175 33.5964 10.2175C31.9813 10.2175 30.6538 8.88997 30.6538 7.27484C30.6538 5.65972 31.9813 4.33219 33.5964 4.33219ZM33.5964 6.0136C32.89 6.0136 32.3352 6.56841 32.3352 7.27484C32.3352 7.98128 32.89 8.53609 33.5964 8.53609C34.3029 8.53609 34.8577 7.98128 34.8577 7.27484C34.8577 6.56841 34.3029 6.0136 33.5964 6.0136ZM8.38656 19.8865C5.10872 19.8865 2.48804 22.3867 2.48804 25.7718C2.48804 26.4899 2.73935 27.7942 2.97424 28.4256C4.7645 32.2105 6.57232 35.9942 8.3737 39.7762C10.1378 35.977 12.024 32.1468 13.7732 28.4256C14.0075 27.7928 14.2594 26.4888 14.2594 25.7718C14.2594 22.384 11.6645 19.8865 8.38656 19.8865ZM8.37366 21.9884C10.4533 21.9884 12.157 23.6924 12.157 25.7718C12.157 27.8514 10.453 29.5551 8.37366 29.5551C6.29401 29.5551 4.5903 27.8511 4.5903 25.7718C4.5903 23.6921 6.29431 21.9884 8.37366 21.9884ZM8.37366 23.6698C7.20272 23.6698 6.27171 24.6008 6.27171 25.7718C6.27171 26.9427 7.20272 27.8737 8.37366 27.8737C9.5446 27.8737 10.4756 26.9427 10.4756 25.7718C10.4756 24.6008 9.5446 23.6698 8.37366 23.6698Z" fill="#27272A"/>
</svg>
