<svg width="24" height="24" viewBox="0 0 24 24" fill="none" xmlns="http://www.w3.org/2000/svg">
<path d="M19.5659 12.8193C20.6665 11.4157 23.1547 8.03432 22.5964 6.67856C22.5092 6.47134 22.3611 6.29553 22.1716 6.17446C21.9822 6.0534 21.7604 5.99279 21.5357 6.00068H18.4972C18.3631 6.00176 18.2313 6.03667 18.1142 6.10219C17.9971 6.16771 17.8984 6.26172 17.8273 6.37551C16.8987 7.88275 15.8675 9.32432 14.741 10.69V7.55582C14.7453 7.3504 14.7081 7.14623 14.6315 6.95559C14.5549 6.76494 14.4405 6.59177 14.2952 6.44649C14.1499 6.3012 13.9767 6.18681 13.7861 6.1102C13.5954 6.03359 13.3913 5.99634 13.1859 6.00068H9.38974C9.28479 6.00008 9.18074 6.02019 9.08358 6.05988C8.98641 6.09957 8.89803 6.15805 8.82352 6.23196C8.64822 6.38038 8.51743 6.57443 8.44564 6.79261C8.37386 7.01079 8.36387 7.24458 8.41679 7.46809C8.51502 7.75801 8.68839 8.01669 8.91922 8.21775C9.05434 8.3167 9.1639 8.44647 9.2388 8.59627C9.3137 8.74607 9.35178 8.91158 9.34987 9.07905V11.9341C8.81554 11.4636 7.79474 10.1557 6.3353 6.50311C6.27621 6.35472 6.17391 6.2275 6.04167 6.13792C5.90944 6.04834 5.75335 6.00053 5.59362 6.00068H1.7975C1.58599 6.00068 1.38314 6.08471 1.23358 6.23427C1.08402 6.38383 1 6.58668 1 6.79819C1 7.0097 1.08402 7.21255 1.23358 7.36211C1.38314 7.51167 1.58599 7.59569 1.7975 7.59569H5.0593C6.6543 11.4636 8.08981 13.4813 9.44557 13.7604C9.66755 13.8138 9.89924 13.8119 10.1203 13.7549C10.3414 13.6979 10.5451 13.5875 10.7136 13.4334C10.8609 13.2849 10.944 13.0844 10.9449 12.8752V9.07905C10.9531 8.5491 10.794 8.03004 10.4903 7.59569H13.146V12.1096C13.1454 12.2145 13.1655 12.3186 13.2052 12.4157C13.2449 12.5129 13.3033 12.6013 13.3773 12.6758C13.4889 12.7873 13.6245 12.8718 13.7738 12.9229C13.9231 12.9741 14.082 12.9905 14.2386 12.9709C15.1637 12.8592 16.7507 11.0569 18.9438 7.59569H20.9934C20.1754 9.28778 19.1493 10.8711 17.939 12.3089C17.7905 12.4584 17.7071 12.6605 17.7071 12.8712C17.7071 13.0819 17.7905 13.284 17.939 13.4334C20.3315 15.7861 20.9615 16.9265 21.129 17.4209H18.5531C18.1657 17.1038 17.8224 16.7364 17.5323 16.3284C17.0635 15.7281 16.5602 15.1556 16.025 14.6137C15.698 14.2868 14.8367 13.4175 13.9435 13.8162C13.6885 13.9408 13.4764 14.1387 13.3343 14.3844C13.1922 14.6302 13.1267 14.9127 13.146 15.1959V17.2774C12.6621 17.3859 12.1659 17.4288 11.6706 17.405C7.88246 17.405 4.95562 12.1574 3.54404 9.02322C3.4494 8.84363 3.28983 8.70689 3.09787 8.64087C2.9059 8.57485 2.69599 8.58452 2.5109 8.66791C2.32582 8.7513 2.1795 8.90213 2.10178 9.08966C2.02405 9.27719 2.02076 9.48731 2.09258 9.67718C3.68759 13.1623 6.98926 19 11.6626 19C12.5798 19 14.733 19 14.733 17.4449V15.5628L14.8925 15.7143C15.3865 16.22 15.8524 16.7525 16.2882 17.3093C17.0458 18.2424 17.6439 18.984 18.4893 18.984H21.5278C21.7812 18.9825 22.0286 18.9059 22.2386 18.764C22.4487 18.6221 22.612 18.4211 22.7081 18.1865C23.0271 17.4608 22.8755 16.2247 19.5659 12.8193Z" fill="white"/>
</svg>
