<svg width="15" height="12" viewBox="0 0 15 12" fill="none" xmlns="http://www.w3.org/2000/svg">
<path d="M14.0631 2.16853L12.3879 0.488527C12.3317 0.432102 12.2552 0.400391 12.1755 0.400391C12.0958 0.400391 12.0194 0.432102 11.9631 0.488527L4.88793 7.56853C4.83165 7.62495 4.75523 7.65666 4.67553 7.65666C4.59584 7.65666 4.51942 7.62495 4.46313 7.56853L2.78793 5.88853C2.73165 5.8321 2.65523 5.80039 2.57553 5.80039C2.49584 5.80039 2.41942 5.8321 2.36313 5.88853L0.687934 7.56853C0.570819 7.68568 0.570819 7.87558 0.687934 7.99273L4.46313 11.7685C4.51942 11.825 4.59584 11.8567 4.67553 11.8567C4.75523 11.8567 4.83165 11.825 4.88793 11.7685L14.0631 2.58853C14.1775 2.47187 14.1775 2.28518 14.0631 2.16853Z" fill="#0079C2"/>
</svg>
